<svg xmlns="http://www.w3.org/2000/svg" width="16" height="16" viewBox="0 0 16 16">
  <path fill="#ffffff" d="M8.051 1.999h.089c.822.003 4.987.033 6.11.335a2.01 2.01 0 0 1 1.415 1.42c.101.38.172.883.22 1.402l.01.104.022 1.055.003.553v.475l-.003.553-.022 1.055-.01.104c-.048.519-.119 1.023-.22 1.402a2.007 2.007 0 0 1-1.415 1.42c-1.123.302-5.288.332-6.11.335h-.089c-.822-.003-4.987-.033-6.11-.335a2.01 2.01 0 0 1-1.415-1.42c-.101-.38-.172-.883-.22-1.402l-.01-.104-.022-1.055L0 8.5v-.475l.003-.553.022-1.055.01-.104c.048-.519.119-1.023.22-1.402a2.007 2.007 0 0 1 1.415-1.42c1.123-.302 5.288-.332 6.11-.335zM6.4 5.5v5l4.3-2.5L6.4 5.5z"/>
</svg>
